<svg width="1160" height="164" viewBox="0 0 1160 164" fill="none" xmlns="http://www.w3.org/2000/svg">
<rect width="1160" height="164" rx="16" fill="white"/>
<rect opacity="0.7" width="1160" height="164" rx="16" fill="#ED1C24" fill-opacity="0.1"/>
<mask id="mask0_1_2069" style="mask-type:alpha" maskUnits="userSpaceOnUse" x="0" y="0" width="1160" height="164">
<rect width="1160" height="164" rx="16" fill="#ED1C24"/>
</mask>
<g mask="url(#mask0_1_2069)">
<g opacity="0.1">
<path d="M77.8384 120.706L57.2607 157.98" stroke="#ED1C24" stroke-width="13" stroke-miterlimit="10" stroke-linecap="round"/>
<path d="M52.084 124.895L82.9945 155.328" stroke="#ED1C24" stroke-width="13" stroke-miterlimit="10" stroke-linecap="round"/>
<path d="M25.7568 120.706L5.1792 157.98" stroke="#ED1C24" stroke-width="13" stroke-miterlimit="10" stroke-linecap="round"/>
<path d="M0 124.895L30.9251 155.328" stroke="#ED1C24" stroke-width="13" stroke-miterlimit="10" stroke-linecap="round"/>
</g>
<g opacity="0.1">
<path d="M1091.32 102L1051.19 174.686" stroke="#ED1C24" stroke-width="24" stroke-miterlimit="10" stroke-linecap="round"/>
<path d="M1041.1 110.167L1101.37 169.514" stroke="#ED1C24" stroke-width="24" stroke-miterlimit="10" stroke-linecap="round"/>
<path d="M989.756 102L949.629 174.686" stroke="#ED1C24" stroke-width="24" stroke-miterlimit="10" stroke-linecap="round"/>
<path d="M939.529 110.167L999.835 169.514" stroke="#ED1C24" stroke-width="24" stroke-miterlimit="10" stroke-linecap="round"/>
</g>
<path d="M21.203 165.817C21.203 165.817 26.4121 151.434 22.1606 137.069C17.9092 122.704 16.8386 105.588 22.4917 88.748" stroke="#ED1C24" stroke-opacity="0.8" stroke-miterlimit="10"/>
<path d="M19.1513 110.768C20.2606 110.537 21.2659 109.96 22.0203 109.124C22.7746 108.287 23.2384 107.233 23.3438 106.117C20.536 106.2 19.6844 108.51 19.1513 110.768Z" fill="#ED1C24" fill-opacity="0.8"/>
<path d="M18.4731 114.807C19.5824 114.575 20.5877 113.999 21.342 113.162C22.0964 112.325 22.5601 111.272 22.6655 110.156C19.8578 110.239 19.0061 112.549 18.4731 114.807Z" fill="#ED1C24" fill-opacity="0.8"/>
<path d="M19.2448 116.374C18.1761 116.749 17.0141 116.776 15.9285 116.452C14.843 116.128 13.8906 115.469 13.2106 114.572C15.6339 113.195 17.6087 114.723 19.2448 116.374Z" fill="#ED1C24" fill-opacity="0.8"/>
<path d="M19.0133 108.604C17.9447 108.979 16.7827 109.006 15.6971 108.682C14.6115 108.358 13.6592 107.699 12.9792 106.802C15.4025 105.425 17.3772 106.953 19.0133 108.604Z" fill="#ED1C24" fill-opacity="0.8"/>
<path d="M19.6289 102.255C20.7627 102.344 21.8954 102.071 22.8608 101.476C23.8262 100.882 24.5733 99.9967 24.9924 98.9513C22.2718 98.27 20.7731 100.205 19.6289 102.255Z" fill="#ED1C24" fill-opacity="0.8"/>
<path d="M18.3648 113.543C17.2326 113.486 16.1483 113.073 15.2701 112.365C14.392 111.656 13.7659 110.688 13.4833 109.602C16.2546 109.243 17.4799 111.376 18.3648 113.543Z" fill="#ED1C24" fill-opacity="0.8"/>
<path d="M18.6845 105.925C19.7974 106.128 20.9467 105.974 21.9651 105.486C22.9835 104.999 23.8178 104.202 24.3462 103.212C21.7271 102.23 20.0153 104.038 18.6845 105.925Z" fill="#ED1C24" fill-opacity="0.8"/>
<path d="M18.6845 105.925C19.7974 106.128 20.9467 105.974 21.9651 105.486C22.9835 104.999 23.8178 104.202 24.3462 103.212C21.7271 102.23 20.0153 104.038 18.6845 105.925Z" fill="#ED1C24" fill-opacity="0.8"/>
<path d="M18.685 105.925C17.5526 105.869 16.4679 105.457 15.5895 104.748C14.7112 104.039 14.0853 103.07 13.8034 101.984C16.561 101.632 17.7935 103.767 18.685 105.925Z" fill="#ED1C24" fill-opacity="0.8"/>
<path d="M18.9751 101.577C17.8426 101.521 16.7579 101.108 15.8796 100.399C15.0012 99.6905 14.3753 98.7222 14.0935 97.6363C16.8511 97.2843 18.0836 99.4191 18.9751 101.577Z" fill="#ED1C24" fill-opacity="0.8"/>
<path d="M20.5002 97.7321C21.6087 97.9723 22.7659 97.8553 23.8022 97.398C24.8385 96.9407 25.6995 96.1674 26.2591 95.1911C23.6784 94.1287 21.9237 95.8708 20.5002 97.7321Z" fill="#ED1C24" fill-opacity="0.8"/>
<path d="M21.2395 93.2406C22.348 93.4809 23.5052 93.3638 24.5415 92.9065C25.5778 92.4493 26.4388 91.6759 26.9983 90.6997C24.4176 89.6372 22.6629 91.3794 21.2395 93.2406Z" fill="#ED1C24" fill-opacity="0.8"/>
<path d="M19.9001 98.1687C18.7701 98.0758 17.6996 97.6285 16.8446 96.892C15.9897 96.1555 15.3949 95.1682 15.1471 94.0741C17.9396 93.8155 19.0888 95.9727 19.9001 98.1687Z" fill="#ED1C24" fill-opacity="0.8"/>
<path d="M20.801 93.5878C19.6709 93.495 18.6005 93.0477 17.7455 92.3112C16.8906 91.5747 16.2958 90.5874 16.048 89.4933C18.8405 89.2347 19.9897 91.3919 20.801 93.5878Z" fill="#ED1C24" fill-opacity="0.8"/>
<path d="M22.1288 90.5169C21.5973 89.1732 21.5142 87.6968 21.8916 86.3031C22.2689 84.9095 23.087 83.6716 24.2263 82.7702C26.118 85.7983 24.2365 88.3506 22.1288 90.5169Z" fill="#ED1C24" fill-opacity="0.8"/>
<path d="M45.7886 173.822C45.7886 173.822 45.0476 155.646 40.0107 140.18C34.9739 124.714 47.253 101.715 38.9629 86.2764C32.7438 102.095 18.1001 112.282 29.6323 144.181C33.7509 154.741 36.0015 172.384 35.6756 182.551C35.3496 192.718 45.7886 173.822 45.7886 173.822Z" fill="#ED1C24"/>
<g style="mix-blend-mode:multiply" opacity="0.38">
<path d="M39.7351 170.756C39.7351 170.756 38.4342 152.831 32.4973 137.904C26.5604 122.977 36.7212 100.422 36.7212 100.422C36.7212 100.422 28.9175 125.012 34.2308 137.004C39.5441 148.996 41.952 168.729 41.952 168.729L39.7351 170.756Z" fill="#442020"/>
</g>
<path d="M36.2792 185.296C36.2792 185.296 17.0082 168.402 16.1321 153.568C15.256 138.735 4.88814 125.739 4.88814 125.739C4.88814 125.739 39.302 145.925 41.0864 181.286L36.2792 185.296Z" fill="#ED1C24"/>
<g style="mix-blend-mode:multiply" opacity="0.38">
<path d="M36.172 184.685C36.2044 185.008 36.4947 185.245 36.8202 185.215C37.1458 185.184 37.3834 184.897 37.3509 184.574L36.172 184.685ZM4.87926 125.744C4.45731 126.154 4.45732 126.154 4.45745 126.154C4.45764 126.154 4.45788 126.155 4.45825 126.155C4.45901 126.156 4.4602 126.157 4.46183 126.159C4.46508 126.162 4.47007 126.167 4.47676 126.174C4.49016 126.187 4.5104 126.208 4.53728 126.236C4.59103 126.291 4.67131 126.374 4.77645 126.483C4.98673 126.702 5.29644 127.029 5.69219 127.455C6.48374 128.307 7.61934 129.559 8.99204 131.155C11.7379 134.347 15.4302 138.911 19.2147 144.397C26.7945 155.386 34.6972 170.007 36.172 184.685L37.3509 184.574C35.8464 169.6 27.808 154.778 20.1915 143.737C16.3779 138.208 12.6583 133.611 9.89174 130.395C8.50825 128.786 7.36253 127.523 6.56181 126.661C6.16143 126.23 5.84727 125.899 5.63271 125.675C5.52543 125.563 5.44305 125.479 5.38725 125.421C5.35934 125.393 5.33808 125.371 5.32367 125.356C5.31647 125.349 5.31098 125.343 5.30723 125.339C5.30535 125.338 5.30391 125.336 5.3029 125.335C5.3024 125.335 5.30198 125.334 5.30173 125.334C5.30142 125.334 5.30121 125.333 4.87926 125.744Z" fill="#442020"/>
</g>
<path d="M1122.07 176.86C1122.07 176.86 1114.03 154.65 1120.59 132.467C1127.16 110.283 1128.81 83.8515 1120.08 57.8457" stroke="#ED1C24" stroke-opacity="0.8" stroke-miterlimit="10"/>
<path d="M1125.24 91.8506C1123.53 91.4932 1121.98 90.6033 1120.81 89.311C1119.65 88.0186 1118.93 86.3917 1118.77 84.668C1123.1 84.7966 1124.42 88.3636 1125.24 91.8506Z" fill="#ED1C24" fill-opacity="0.8"/>
<path d="M1126.29 98.0874C1124.58 97.73 1123.02 96.8401 1121.86 95.5478C1120.69 94.2554 1119.98 92.6285 1119.81 90.9049C1124.15 91.0335 1125.47 94.6004 1126.29 98.0874Z" fill="#ED1C24" fill-opacity="0.8"/>
<path d="M1125.1 100.507C1126.75 101.086 1128.54 101.129 1130.22 100.628C1131.89 100.127 1133.37 99.1098 1134.42 97.7241C1130.67 95.5979 1127.62 97.9579 1125.1 100.507Z" fill="#ED1C24" fill-opacity="0.8"/>
<path d="M1125.45 88.5082C1127.1 89.0876 1128.9 89.13 1130.58 88.6294C1132.25 88.1287 1133.72 87.1113 1134.77 85.7256C1131.03 83.5993 1127.98 85.9594 1125.45 88.5082Z" fill="#ED1C24" fill-opacity="0.8"/>
<path d="M1124.5 78.7038C1122.75 78.8412 1121 78.4197 1119.51 77.5015C1118.02 76.5832 1116.87 75.2165 1116.22 73.602C1120.42 72.55 1122.74 75.5376 1124.5 78.7038Z" fill="#ED1C24" fill-opacity="0.8"/>
<path d="M1126.46 96.1352C1128.2 96.048 1129.88 95.4106 1131.24 94.3159C1132.59 93.2213 1133.56 91.7267 1133.99 90.0503C1129.72 89.495 1127.82 92.7887 1126.46 96.1352Z" fill="#ED1C24" fill-opacity="0.8"/>
<path d="M1125.96 84.3709C1124.24 84.6846 1122.47 84.4474 1120.9 83.6939C1119.32 82.9404 1118.03 81.71 1117.22 80.182C1121.26 78.6656 1123.91 81.4567 1125.96 84.3709Z" fill="#ED1C24" fill-opacity="0.8"/>
<path d="M1125.96 84.3709C1124.24 84.6846 1122.47 84.4474 1120.9 83.6939C1119.32 82.9404 1118.03 81.71 1117.22 80.182C1121.26 78.6656 1123.91 81.4567 1125.96 84.3709Z" fill="#ED1C24" fill-opacity="0.8"/>
<path d="M1125.96 84.3711C1127.71 84.2851 1129.39 83.6481 1130.74 82.5533C1132.1 81.4584 1133.07 79.9631 1133.5 78.2862C1129.24 77.7425 1127.34 81.0393 1125.96 84.3711Z" fill="#ED1C24" fill-opacity="0.8"/>
<path d="M1125.51 77.6565C1127.26 77.5705 1128.94 76.9335 1130.29 75.8387C1131.65 74.7438 1132.62 73.2485 1133.05 71.5716C1128.79 71.0279 1126.89 74.3247 1125.51 77.6565Z" fill="#ED1C24" fill-opacity="0.8"/>
<path d="M1123.16 71.7191C1121.45 72.0901 1119.66 71.9093 1118.06 71.2032C1116.46 70.4971 1115.13 69.3027 1114.27 67.7952C1118.25 66.1545 1120.96 68.8448 1123.16 71.7191Z" fill="#ED1C24" fill-opacity="0.8"/>
<path d="M1122.02 64.7833C1120.3 65.1543 1118.52 64.9735 1116.92 64.2674C1115.32 63.5613 1113.99 62.3669 1113.12 60.8594C1117.11 59.2187 1119.82 61.909 1122.02 64.7833Z" fill="#ED1C24" fill-opacity="0.8"/>
<path d="M1124.08 72.3934C1125.83 72.25 1127.48 71.5593 1128.8 70.4219C1130.12 69.2845 1131.04 67.76 1131.42 66.0704C1127.11 65.671 1125.34 69.0023 1124.08 72.3934Z" fill="#ED1C24" fill-opacity="0.8"/>
<path d="M1122.69 65.32C1124.44 65.1765 1126.09 64.4858 1127.41 63.3484C1128.73 62.2111 1129.65 60.6865 1130.03 58.9969C1125.72 58.5975 1123.95 61.9288 1122.69 65.32Z" fill="#ED1C24" fill-opacity="0.8"/>
<path d="M1120.64 60.5772C1121.46 58.5023 1121.59 56.2223 1121.01 54.0701C1120.43 51.9179 1119.16 50.0063 1117.4 48.6143C1114.48 53.2904 1117.39 57.2319 1120.64 60.5772Z" fill="#ED1C24" fill-opacity="0.8"/>
<path d="M1084.11 189.223C1084.11 189.223 1085.25 161.155 1093.03 137.27C1100.81 113.386 1081.84 77.8707 1094.65 54.0288C1104.25 78.4578 1126.86 94.1886 1109.05 143.449C1102.69 159.756 1099.22 187.002 1099.72 202.703C1100.23 218.404 1084.11 189.223 1084.11 189.223Z" fill="#ED1C24"/>
<g style="mix-blend-mode:multiply" opacity="0.38">
<path d="M1093.46 184.488C1093.46 184.488 1095.47 156.807 1104.63 133.756C1113.8 110.705 1098.11 75.8735 1098.11 75.8735C1098.11 75.8735 1110.16 113.847 1101.96 132.366C1093.75 150.885 1090.03 181.357 1090.03 181.357L1093.46 184.488Z" fill="#442020"/>
</g>
<path d="M1098.79 206.942C1098.79 206.942 1128.55 180.853 1129.9 157.946C1131.26 135.039 1147.27 114.969 1147.27 114.969C1147.27 114.969 1094.12 146.143 1091.37 200.749L1098.79 206.942Z" fill="#ED1C24"/>
<g style="mix-blend-mode:multiply" opacity="0.38">
<path d="M1098.64 205.968C1098.6 206.291 1098.31 206.528 1097.99 206.497C1097.66 206.467 1097.43 206.18 1097.46 205.857L1098.64 205.968ZM1147.28 114.977C1147.7 115.387 1147.7 115.387 1147.7 115.387C1147.7 115.388 1147.7 115.388 1147.7 115.389C1147.7 115.39 1147.7 115.392 1147.7 115.395C1147.69 115.4 1147.68 115.408 1147.67 115.418C1147.65 115.44 1147.62 115.472 1147.58 115.515C1147.5 115.601 1147.37 115.729 1147.21 115.899C1146.88 116.239 1146.4 116.743 1145.79 117.403C1144.57 118.722 1142.81 120.659 1140.69 123.126C1136.44 128.062 1130.73 135.119 1124.88 143.603C1113.16 160.587 1100.92 183.221 1098.64 205.968L1097.46 205.857C1099.77 182.813 1112.15 159.979 1123.9 142.943C1129.78 134.417 1135.52 127.326 1139.79 122.366C1141.92 119.886 1143.69 117.938 1144.92 116.609C1145.54 115.945 1146.02 115.435 1146.35 115.091C1146.52 114.919 1146.64 114.788 1146.73 114.7C1146.77 114.657 1146.8 114.623 1146.83 114.601C1146.84 114.59 1146.85 114.581 1146.85 114.575C1146.85 114.573 1146.86 114.57 1146.86 114.569C1146.86 114.568 1146.86 114.568 1146.86 114.567C1146.86 114.567 1146.86 114.566 1147.28 114.977Z" fill="#442020"/>
</g>
</g>
</svg>
