<svg width="22" height="23" viewBox="0 0 22 23" fill="none" xmlns="http://www.w3.org/2000/svg">
<g id="Outline/Close">
<path id="Vector" fill-rule="evenodd" clip-rule="evenodd" d="M17.1469 6.64883C17.5049 6.29085 17.5049 5.71045 17.1469 5.35247C16.7889 4.99449 16.2085 4.99449 15.8505 5.35247L10.9987 10.2043L6.14688 5.35247C5.7889 4.99449 5.2085 4.99449 4.85052 5.35247C4.49254 5.71045 4.49254 6.29085 4.85052 6.64883L9.70234 11.5007L4.85052 16.3525C4.49254 16.7105 4.49254 17.2909 4.85052 17.6488C5.2085 18.0068 5.7889 18.0068 6.14688 17.6488L10.9987 12.797L15.8505 17.6488C16.2085 18.0068 16.7889 18.0068 17.1469 17.6488C17.5049 17.2909 17.5049 16.7105 17.1469 16.3525L12.2951 11.5007L17.1469 6.64883Z" fill="#90A1BC"/>
</g>
</svg>
