<svg width="22" height="23" viewBox="0 0 22 23" fill="none" xmlns="http://www.w3.org/2000/svg">
<g id="eye">
<path id="Vector" d="M10.648 7.364C11.9827 7.364 13.2807 7.848 14.542 8.816C15.4513 9.52 16.2873 10.4293 17.05 11.544C17.138 11.676 17.182 11.8153 17.182 11.962C17.182 12.1087 17.138 12.2407 17.05 12.358C16.2873 13.4727 15.4513 14.382 14.542 15.086C13.2807 16.054 11.9827 16.538 10.648 16.538C9.31333 16.538 8.01533 16.054 6.754 15.086C5.84467 14.382 5.00867 13.4727 4.246 12.358C4.17267 12.2407 4.136 12.1087 4.136 11.962C4.136 11.8153 4.17267 11.676 4.246 11.544C5.00867 10.4293 5.84467 9.52 6.754 8.816C8.01533 7.848 9.31333 7.364 10.648 7.364ZM3.124 10.774C2.87467 11.1407 2.75 11.5367 2.75 11.962C2.75 12.3873 2.87467 12.776 3.124 13.128C3.94533 14.36 4.87667 15.3793 5.918 16.186C7.42867 17.3447 9.009 17.924 10.659 17.924C12.309 17.924 13.882 17.3447 15.378 16.186C16.4047 15.394 17.3433 14.3747 18.194 13.128C18.4433 12.776 18.568 12.3873 18.568 11.962C18.568 11.5367 18.4433 11.1407 18.194 10.774C17.3433 9.542 16.4047 8.53 15.378 7.738C13.882 6.57933 12.309 6 10.659 6C9.009 6 7.42867 6.57933 5.918 7.738C4.87667 8.54467 3.94533 9.55667 3.124 10.774ZM10.67 13.326C10.2887 13.326 9.96233 13.194 9.691 12.93C9.41967 12.666 9.284 12.3433 9.284 11.962C9.284 11.5807 9.41967 11.2543 9.691 10.983C9.96233 10.7117 10.2887 10.576 10.67 10.576C11.0513 10.576 11.3777 10.7117 11.649 10.983C11.9203 11.2543 12.056 11.5807 12.056 11.962C12.056 12.3433 11.9203 12.666 11.649 12.93C11.3777 13.194 11.0513 13.326 10.67 13.326ZM13.442 11.962C13.442 11.4633 13.3173 11.005 13.068 10.587C12.8187 10.169 12.4813 9.83533 12.056 9.586C11.6307 9.33667 11.1687 9.212 10.67 9.212C10.1713 9.212 9.70933 9.33667 9.284 9.586C8.85867 9.83533 8.52133 10.169 8.272 10.587C8.02267 11.005 7.898 11.4633 7.898 11.962C7.898 12.4607 8.02267 12.919 8.272 13.337C8.52133 13.755 8.85867 14.0887 9.284 14.338C9.70933 14.5873 10.1713 14.712 10.67 14.712C11.1687 14.712 11.6307 14.5873 12.056 14.338C12.4813 14.0887 12.8187 13.755 13.068 13.337C13.3173 12.919 13.442 12.4607 13.442 11.962Z" fill="#90A1BC"/>
</g>
</svg>
