<svg width="34" height="24" viewBox="0 0 34 24" fill="none" xmlns="http://www.w3.org/2000/svg">
<g clip-path="url(#clip0_22_2019)">
<path d="M28.1471 2.06217C29.7147 2.62451 31.0283 3.73472 31.8474 5.18967H33.5165C32.3817 2.76924 30.1077 0.863037 27.476 0.366538C26.9666 0.270618 26.4487 0.226801 25.9305 0.23576C22.7734 0.284524 19.6538 2.23062 18.3335 5.1121H19.9827C21.5745 2.39464 25.1732 1.04701 28.1471 2.06217Z" fill="#ED1C24"/>
<path d="M7.56366 16.8331C11.2087 17.1722 14.9377 14.8118 16.1851 11.3769L16.205 11.3153H14.6286L14.6021 11.3703C14.0173 12.6643 13.0442 13.7453 11.817 14.4642C10.5898 15.183 9.16915 15.5042 7.75113 15.3834C6.33311 15.2625 4.98768 14.7057 3.90056 13.7896C2.81345 12.8736 2.03829 11.6436 1.68211 10.2694C1.55992 9.78975 1.49325 9.29775 1.4834 8.80298V13.2066C2.87211 15.1861 5.12405 16.6063 7.56366 16.8331Z" fill="#ED1C24"/>
<path d="M32.2472 11.2205C31.2272 13.4884 28.9487 15.2081 26.4473 15.404C25.0065 15.5128 23.569 15.1536 22.3496 14.3802C21.1442 13.6029 20.2346 12.4448 19.4795 11.2294L19.4596 11.1875C18.2917 9.30935 17.4218 7.25945 16.2649 5.37688L16.1237 5.15669C14.9778 3.36 13.4986 1.6976 11.5535 0.838887C10.8649 0.541278 10.1357 0.347594 9.38988 0.264208C8.64191 0.181601 7.88629 0.197148 7.14235 0.310449C6.76981 0.365845 6.40111 0.444529 6.03846 0.546043C5.673 0.632771 5.31721 0.755961 4.97651 0.913749C4.42178 1.17684 3.89325 1.49163 3.39794 1.85393C2.91041 2.22783 2.46611 2.65468 2.07326 3.1266C1.27594 4.07473 0.686342 5.17876 0.34235 6.36768C0.0810163 7.25 -0.0257854 8.17065 0.0266377 9.08917V23.6785H1.46391V13.1692L1.48598 13.2V8.79633C1.43521 6.4888 2.57443 4.15046 4.50625 2.85137C5.69735 2.08418 7.09237 1.69218 8.50986 1.72635C9.92735 1.76051 11.3017 2.21925 12.4543 3.04293C13.2208 3.63481 13.8872 4.34549 14.4281 5.14789C14.6974 5.53101 14.9469 5.92513 15.1809 6.32587C16.1126 7.91779 16.8611 9.61318 17.7795 11.2117C17.817 11.28 17.8546 11.346 17.8943 11.4121C18.8657 13.0701 20.08 14.6444 21.716 15.6572C22.7117 16.2614 23.8244 16.6483 24.9809 16.7926C26.1373 16.9368 27.3112 16.835 28.4255 16.4939C30.9291 15.7233 32.936 13.658 33.8191 11.2095L32.2472 11.2205Z" fill="#231F20"/>
</g>
<defs>
<clipPath id="clip0_22_2019">
<rect width="34" height="24" fill="white"/>
</clipPath>
</defs>
</svg>
