<svg width="87" height="62" viewBox="0 0 87 62" fill="none" xmlns="http://www.w3.org/2000/svg">
<g clip-path="url(#clip0_1_1476)">
<path d="M9.20821 51.6819C10.0934 51.6253 10.9741 51.8479 11.7278 52.319C12.0571 52.5621 12.3213 52.8837 12.4968 53.255C12.6723 53.6263 12.7536 54.0356 12.7334 54.4463C12.7334 56.6077 10.8973 57.4894 9.46238 57.4951C9.32883 57.503 9.19488 57.503 9.06127 57.4951L8.07264 57.2334V59.5086C8.07264 60.7543 8.17432 60.7885 9.51887 60.9307V61.3231H5.33838V60.8852C6.57562 60.7543 6.64906 60.669 6.64906 59.4347V53.593C6.64906 52.2848 6.49087 52.2336 5.33838 52.1255V51.6819H9.20821ZM8.07834 56.6646C8.40211 56.7994 8.75067 56.8633 9.10088 56.8524C10.033 56.8524 11.2363 56.3688 11.2363 54.4804C11.2684 54.1772 11.2333 53.8705 11.1336 53.5825C11.034 53.2945 10.8722 53.0324 10.6599 52.8148C10.4476 52.5973 10.1901 52.4298 9.90591 52.3244C9.62169 52.219 9.31781 52.1782 9.01613 52.2052C8.74401 52.1751 8.46967 52.2371 8.23652 52.3815C8.11789 52.4839 8.07834 52.6545 8.07834 53.0242V56.6646Z" fill="#ED1C24"/>
<path d="M17.9423 54.6225C18.3758 54.6152 18.8064 54.697 19.2075 54.8628C19.6087 55.0286 19.9721 55.2751 20.2756 55.587C20.579 55.8989 20.8161 56.2698 20.9725 56.677C21.1288 57.0843 21.2011 57.5195 21.185 57.9557C21.2149 58.4068 21.1533 58.8596 21.004 59.2862C20.8546 59.7128 20.6206 60.1041 20.3162 60.4369C20.0118 60.7696 19.6433 61.0358 19.2332 61.2207C18.8232 61.4055 18.3801 61.5039 17.931 61.5108C17.494 61.5176 17.0602 61.4363 16.6552 61.2713C16.2501 61.1064 15.882 60.8612 15.5728 60.5501C15.2636 60.2395 15.0195 59.8692 14.8549 59.4619C14.6903 59.0541 14.6087 58.6173 14.6148 58.1776C14.5959 57.7225 14.6675 57.2686 14.8255 56.8423C14.9835 56.4158 15.2246 56.0254 15.5346 55.6942C15.8447 55.3629 16.2174 55.0974 16.6309 54.9134C17.0443 54.7293 17.4903 54.6304 17.9423 54.6225ZM17.7615 55.1458C16.9141 55.1458 16.1345 55.982 16.1345 57.7225C16.1345 59.5996 16.9197 60.9761 18.0778 60.9761C18.9309 60.9761 19.6653 60.3561 19.6653 58.297C19.6653 56.5052 18.993 55.1458 17.7615 55.1458Z" fill="#231F20"/>
<path d="M23.2925 61.3232V60.8966C24.2133 60.7942 24.315 60.7259 24.315 59.759V52.7114C24.315 51.8298 24.2416 51.7445 23.332 51.6136V51.2155C24.1002 51.1232 24.8572 50.9536 25.5918 50.7092V59.759C25.5918 60.7373 25.6709 60.8056 26.6086 60.8966V61.3232H23.2925Z" fill="#231F20"/>
<path d="M32.043 54.6226C32.4771 54.6146 32.9083 54.6958 33.31 54.8612C33.7119 55.0267 34.076 55.273 34.38 55.585C34.6841 55.897 34.9217 56.2682 35.0785 56.6758C35.2352 57.0833 35.3076 57.519 35.2914 57.9558C35.3214 58.4069 35.2598 58.8597 35.1104 59.2863C34.9611 59.7129 34.7271 60.1042 34.4226 60.437C34.1182 60.7697 33.7498 61.0365 33.3397 61.2208C32.9296 61.4056 32.4865 61.504 32.0374 61.5109C31.6003 61.5188 31.1661 61.4375 30.7607 61.2731C30.3553 61.1082 29.9869 60.863 29.6775 60.5519C29.3681 60.2413 29.124 59.8704 28.9598 59.4626C28.7954 59.0548 28.7143 58.6179 28.7212 58.1777C28.7023 57.7232 28.7738 57.2698 28.9314 56.8437C29.089 56.4176 29.3296 56.0275 29.6391 55.6963C29.9486 55.3651 30.3206 55.0995 30.7334 54.9151C31.1462 54.7307 31.5915 54.6313 32.043 54.6226ZM31.8679 55.1459C31.0149 55.1459 30.2409 55.9821 30.2409 57.7226C30.2409 59.5997 31.0261 60.9762 32.1842 60.9762C33.0373 60.9762 33.7718 60.3562 33.7718 58.2971C33.7718 56.5054 33.0938 55.1459 31.8679 55.1459Z" fill="#231F20"/>
<path d="M51.3527 58.9227C51.1286 59.6974 50.8569 60.4574 50.5392 61.1979C49.6541 61.4135 48.7491 61.5353 47.8388 61.562C44.2346 61.562 42.4663 59.1616 42.4663 56.6077C42.4663 53.5702 44.7599 51.4884 48.1157 51.4884C49.0525 51.5158 49.9848 51.63 50.9008 51.8297C50.9629 52.5066 51.0646 53.4337 51.1833 54.1618L50.7031 54.2642C50.4036 53.2403 50.0308 52.6431 49.2738 52.3302C48.7965 52.1452 48.2881 52.0544 47.7767 52.0629C45.3983 52.0629 44.1498 53.8717 44.1498 56.2948C44.1498 59.1389 45.6073 60.9761 47.9292 60.9761C49.3868 60.9761 50.1381 60.2879 50.9008 58.7748L51.3527 58.9227Z" fill="#ED1C24"/>
<path d="M53.6519 61.3232V60.8966C54.5783 60.7942 54.68 60.7259 54.68 59.759V52.7114C54.68 51.8298 54.6009 51.7445 53.6914 51.6136V51.2155C54.4597 51.1238 55.2167 50.9542 55.9511 50.7092V59.759C55.9511 60.7373 56.0302 60.8056 56.968 60.8966V61.3232H53.6519Z" fill="#231F20"/>
<path d="M62.4082 54.6225C62.8415 54.6152 63.2726 54.697 63.6737 54.8628C64.0748 55.0286 64.438 55.2751 64.7414 55.587C65.0448 55.8989 65.282 56.2698 65.4385 56.677C65.595 57.0843 65.6673 57.5195 65.6509 57.9557C65.6809 58.4068 65.6193 58.8596 65.4702 59.2862C65.3205 59.7128 65.0866 60.1041 64.7821 60.4369C64.4776 60.7696 64.1092 61.0358 63.6991 61.2207C63.289 61.4055 62.846 61.5039 62.3969 61.5108C61.9602 61.5176 61.5269 61.4363 61.1219 61.2713C60.7174 61.1058 60.3496 60.8606 60.0406 60.5501C59.7321 60.2389 59.4881 59.8686 59.3242 59.4614C59.1604 59.0535 59.0796 58.6173 59.0864 58.1776C59.0678 57.7231 59.1389 57.2697 59.2966 56.8436C59.4542 56.4174 59.6948 56.0274 60.0044 55.6961C60.3134 55.365 60.6857 55.0994 61.0987 54.915C61.5117 54.7306 61.9568 54.6312 62.4082 54.6225ZM62.2274 55.1458C61.38 55.1458 60.6004 55.982 60.6004 57.7225C60.6004 59.5996 61.3857 60.9761 62.5438 60.9761C63.3969 60.9761 64.1313 60.3561 64.1313 58.297C64.1313 56.5052 63.459 55.1458 62.2218 55.1458H62.2274Z" fill="#231F20"/>
<path d="M71.8654 56.5963C71.5829 55.7033 71.1761 55.1345 70.3118 55.1345C70.1915 55.1319 70.0717 55.1545 69.9598 55.201C69.8485 55.2475 69.748 55.3168 69.6644 55.4045C69.5813 55.4922 69.5169 55.5965 69.4757 55.7106C69.4344 55.8247 69.4169 55.9462 69.4248 56.0673C69.4248 56.6816 69.8429 56.9774 70.6564 57.3528C71.9105 57.9501 72.5772 58.4051 72.5772 59.4176C72.5772 60.8055 71.3061 61.5108 70.1197 61.5108C69.5045 61.5074 68.8978 61.3635 68.3458 61.0899C68.278 60.6747 68.1424 59.8215 68.0859 59.3266L68.5266 59.247C68.7978 60.1969 69.3288 60.9875 70.3513 60.9875C70.4813 60.9955 70.6112 60.9761 70.7332 60.9306C70.8547 60.8857 70.966 60.8152 71.0598 60.7242C71.153 60.6331 71.227 60.5239 71.2761 60.4028C71.3253 60.2816 71.349 60.1514 71.3456 60.0205C71.3456 59.3892 70.9784 59.0479 70.1762 58.6497C69.1537 58.1492 68.295 57.6714 68.295 56.5736C68.295 55.4758 69.2158 54.6226 70.6338 54.6226C71.1213 54.6398 71.606 54.7065 72.08 54.8216C72.1252 55.1857 72.2326 56.1242 72.306 56.4882L71.8654 56.5963Z" fill="#231F20"/>
<path d="M80.3618 60.0376C80.0799 60.4528 79.7105 60.8004 79.28 61.0546C78.8489 61.3095 78.3682 61.4653 77.8705 61.5108C76.0401 61.5108 74.9441 60.0262 74.9441 58.3084C74.9328 57.3443 75.2842 56.412 75.9271 55.6976C76.2033 55.3751 76.5423 55.1133 76.9236 54.9283C77.3044 54.7434 77.7191 54.6393 78.1416 54.6226C78.749 54.633 79.3286 54.8821 79.7562 55.3168C80.1833 55.7515 80.4251 56.3373 80.4296 56.949C80.4296 57.2334 80.3788 57.3927 80.1528 57.4495C79.9268 57.5064 77.9383 57.6372 76.2435 57.6941C76.2152 59.611 77.3733 60.4244 78.4128 60.4244C79.0506 60.4039 79.6568 60.1394 80.1076 59.6849L80.3618 60.0376ZM77.797 55.1971C77.1361 55.1971 76.5033 55.8455 76.3169 57.04C77.1022 57.04 77.8818 57.04 78.7066 57.0002C78.9608 57.0002 79.0455 56.9262 79.0455 56.6987C79.0659 56.5168 79.0489 56.3326 78.997 56.1574C78.9444 55.9821 78.8569 55.8193 78.7405 55.6789C78.6235 55.5386 78.48 55.4236 78.3179 55.3407C78.1558 55.2579 77.9784 55.209 77.797 55.1971Z" fill="#231F20"/>
<path d="M85.6045 61.3232C85.4119 61.4312 85.1978 61.4955 84.9775 61.5109C84.0001 61.5109 83.4691 60.9421 83.4691 59.7248V55.436H82.4635L82.4014 55.2597L82.8025 54.8046H83.4691V53.5589C83.7911 53.2518 84.2713 52.8479 84.599 52.5408L84.8136 52.5863C84.7854 53.1551 84.7684 54.0197 84.7741 54.8046H86.4124C86.4751 54.9034 86.5 55.0213 86.4836 55.1372C86.4666 55.253 86.4096 55.359 86.322 55.436H84.7741V59.2072C84.7741 60.4017 85.243 60.6065 85.6102 60.6065C85.9107 60.5951 86.2056 60.5194 86.4746 60.3846L86.6101 60.7999L85.6045 61.3232Z" fill="#231F20"/>
<path d="M72.0235 5.32713C76.0345 6.77984 79.3959 9.64788 81.4918 13.4065H85.7627C82.8589 7.15372 77.0401 2.22937 70.3061 0.946748C69.0028 0.698953 67.6774 0.58576 66.3515 0.608905C58.273 0.734879 50.2904 5.7623 46.9121 13.2061H51.1322C55.2054 6.18601 64.4138 2.70462 72.0235 5.32713Z" fill="#ED1C24"/>
<path d="M19.3547 43.4854C28.6818 44.3613 38.2235 38.2637 41.4154 29.3903L41.4663 29.2311H37.4326L37.3648 29.3733C35.8685 32.7161 33.3784 35.5088 30.2382 37.3657C27.0981 39.2227 23.4629 40.0524 19.8344 39.7403C16.2059 39.4281 12.7632 37.9896 9.98148 35.6231C7.19974 33.2567 5.21627 30.0792 4.30485 26.5292C3.9922 25.2901 3.82159 24.0191 3.79639 22.741V34.1171C7.34985 39.2307 13.1122 42.8995 19.3547 43.4854Z" fill="#ED1C24"/>
<path d="M82.5145 28.9864C79.9045 34.8451 74.0743 39.2875 67.6736 39.7937C63.9869 40.0746 60.3086 39.1468 57.1884 37.1488C54.1039 35.1409 51.7764 32.149 49.8443 29.0091L49.7934 28.9011C46.8049 24.0491 44.5791 18.7535 41.6188 13.8902L41.2573 13.3214C38.3252 8.67996 34.5402 4.38544 29.5631 2.16709C27.8011 1.39827 25.9351 0.89792 24.0267 0.682507C22.1128 0.469105 20.1793 0.509268 18.2757 0.801962C17.3224 0.945068 16.379 1.14834 15.451 1.41058C14.5159 1.63463 13.6055 1.95287 12.7337 2.36049C11.3142 3.04013 9.96183 3.85336 8.6944 4.7893C7.44691 5.75521 6.31004 6.8579 5.30479 8.07703C3.26459 10.5264 1.75591 13.3784 0.875698 16.4498C0.20699 18.7291 -0.0662963 21.1075 0.0678453 23.4803V61.1695H3.74556V34.0203L3.80206 34.1V22.7238C3.67212 16.7627 6.58719 10.722 11.5304 7.36602C14.5782 5.38411 18.1478 4.37144 21.7749 4.4597C25.402 4.54796 28.9188 5.73303 31.868 7.86088C33.8295 9.38989 35.5346 11.2258 36.9186 13.2987C37.6078 14.2884 38.2462 15.3066 38.845 16.3418C41.229 20.4543 43.1441 24.834 45.4943 28.9636C45.5903 29.1399 45.6864 29.3105 45.788 29.4812C48.2738 33.7643 51.3809 37.8313 55.5671 40.4478C58.1149 42.0086 60.9622 43.0082 63.9213 43.3807C66.8805 43.7533 69.8842 43.4904 72.7354 42.6093C79.1418 40.6185 84.2771 35.2831 86.5368 28.9579L82.5145 28.9864Z" fill="#231F20"/>
</g>
<defs>
<clipPath id="clip0_1_1476">
<rect width="87" height="62" fill="white"/>
</clipPath>
</defs>
</svg>
